<mxfile host="Electron" agent="Mozilla/5.0 (Windows NT 10.0; Win64; x64) AppleWebKit/537.36 (KHTML, like Gecko) draw.io/26.2.2 Chrome/134.0.6998.178 Electron/35.1.2 Safari/537.36" version="26.2.2">
  <diagram id="C5RBs43oDa-KdzZeNtuy" name="Page-1">
    <mxGraphModel dx="2068" dy="1219" grid="1" gridSize="10" guides="1" tooltips="1" connect="1" arrows="1" fold="1" page="1" pageScale="1" pageWidth="827" pageHeight="1169" math="0" shadow="0">
      <root>
        <mxCell id="WIyWlLk6GJQsqaUBKTNV-0" />
        <mxCell id="WIyWlLk6GJQsqaUBKTNV-1" parent="WIyWlLk6GJQsqaUBKTNV-0" />
        <mxCell id="GkLdqIe8JMVAQNq9l6uQ-3" style="edgeStyle=orthogonalEdgeStyle;rounded=0;orthogonalLoop=1;jettySize=auto;html=1;entryX=0.5;entryY=0;entryDx=0;entryDy=0;entryPerimeter=0;" parent="WIyWlLk6GJQsqaUBKTNV-1" source="GkLdqIe8JMVAQNq9l6uQ-0" target="GkLdqIe8JMVAQNq9l6uQ-4" edge="1">
          <mxGeometry relative="1" as="geometry">
            <mxPoint x="144" y="120" as="targetPoint" />
          </mxGeometry>
        </mxCell>
        <mxCell id="GkLdqIe8JMVAQNq9l6uQ-0" value="Import user details from database" style="strokeWidth=2;html=1;shape=mxgraph.flowchart.start_1;whiteSpace=wrap;" parent="WIyWlLk6GJQsqaUBKTNV-1" vertex="1">
          <mxGeometry x="94" y="10" width="100" height="60" as="geometry" />
        </mxCell>
        <mxCell id="GkLdqIe8JMVAQNq9l6uQ-7" value="Yes&lt;div&gt;&lt;br&gt;&lt;/div&gt;" style="edgeStyle=orthogonalEdgeStyle;rounded=0;orthogonalLoop=1;jettySize=auto;html=1;exitX=0.5;exitY=1;exitDx=0;exitDy=0;exitPerimeter=0;entryX=0.5;entryY=0;entryDx=0;entryDy=0;entryPerimeter=0;" parent="WIyWlLk6GJQsqaUBKTNV-1" source="GkLdqIe8JMVAQNq9l6uQ-4" target="GkLdqIe8JMVAQNq9l6uQ-14" edge="1">
          <mxGeometry x="0.0098" y="15" relative="1" as="geometry">
            <mxPoint x="139" y="230" as="sourcePoint" />
            <mxPoint x="144" y="270" as="targetPoint" />
            <mxPoint x="1" y="-1" as="offset" />
          </mxGeometry>
        </mxCell>
        <mxCell id="GkLdqIe8JMVAQNq9l6uQ-4" value="User input?" style="strokeWidth=2;html=1;shape=mxgraph.flowchart.decision;whiteSpace=wrap;" parent="WIyWlLk6GJQsqaUBKTNV-1" vertex="1">
          <mxGeometry x="94" y="120" width="100" height="100" as="geometry" />
        </mxCell>
        <mxCell id="GkLdqIe8JMVAQNq9l6uQ-9" style="edgeStyle=orthogonalEdgeStyle;rounded=0;orthogonalLoop=1;jettySize=auto;html=1;entryX=1;entryY=0.5;entryDx=0;entryDy=0;entryPerimeter=0;exitX=1;exitY=0.5;exitDx=0;exitDy=0;exitPerimeter=0;" parent="WIyWlLk6GJQsqaUBKTNV-1" source="GkLdqIe8JMVAQNq9l6uQ-8" target="GkLdqIe8JMVAQNq9l6uQ-4" edge="1">
          <mxGeometry relative="1" as="geometry">
            <mxPoint x="330" y="320" as="targetPoint" />
            <Array as="points">
              <mxPoint x="250" y="480" />
              <mxPoint x="250" y="170" />
            </Array>
          </mxGeometry>
        </mxCell>
        <mxCell id="GkLdqIe8JMVAQNq9l6uQ-10" value="No" style="edgeLabel;html=1;align=center;verticalAlign=middle;resizable=0;points=[];" parent="GkLdqIe8JMVAQNq9l6uQ-9" vertex="1" connectable="0">
          <mxGeometry x="0.0214" y="1" relative="1" as="geometry">
            <mxPoint x="1" y="120" as="offset" />
          </mxGeometry>
        </mxCell>
        <mxCell id="GkLdqIe8JMVAQNq9l6uQ-12" value="Yes" style="edgeStyle=orthogonalEdgeStyle;rounded=0;orthogonalLoop=1;jettySize=auto;html=1;" parent="WIyWlLk6GJQsqaUBKTNV-1" source="GkLdqIe8JMVAQNq9l6uQ-8" target="GkLdqIe8JMVAQNq9l6uQ-11" edge="1">
          <mxGeometry relative="1" as="geometry" />
        </mxCell>
        <mxCell id="GkLdqIe8JMVAQNq9l6uQ-8" value="User input&amp;nbsp;&lt;div&gt;valid?&lt;/div&gt;" style="strokeWidth=2;html=1;shape=mxgraph.flowchart.decision;whiteSpace=wrap;" parent="WIyWlLk6GJQsqaUBKTNV-1" vertex="1">
          <mxGeometry x="94" y="430" width="100" height="100" as="geometry" />
        </mxCell>
        <mxCell id="GkLdqIe8JMVAQNq9l6uQ-11" value="Enable calculate button" style="whiteSpace=wrap;html=1;strokeWidth=2;" parent="WIyWlLk6GJQsqaUBKTNV-1" vertex="1">
          <mxGeometry x="84" y="584" width="120" height="60" as="geometry" />
        </mxCell>
        <mxCell id="GkLdqIe8JMVAQNq9l6uQ-15" value="Yes" style="edgeStyle=orthogonalEdgeStyle;rounded=0;orthogonalLoop=1;jettySize=auto;html=1;exitX=1;exitY=0.5;exitDx=0;exitDy=0;exitPerimeter=0;entryX=0;entryY=0.5;entryDx=0;entryDy=0;" parent="WIyWlLk6GJQsqaUBKTNV-1" source="GkLdqIe8JMVAQNq9l6uQ-14" target="GkLdqIe8JMVAQNq9l6uQ-20" edge="1">
          <mxGeometry relative="1" as="geometry">
            <mxPoint x="340" y="320" as="targetPoint" />
            <Array as="points">
              <mxPoint x="300" y="320" />
              <mxPoint x="300" y="40" />
            </Array>
            <mxPoint as="offset" />
          </mxGeometry>
        </mxCell>
        <mxCell id="GkLdqIe8JMVAQNq9l6uQ-14" value="Calculate&amp;nbsp;&lt;div&gt;button&amp;nbsp;&lt;/div&gt;&lt;div&gt;clicked?&lt;/div&gt;" style="strokeWidth=2;html=1;shape=mxgraph.flowchart.decision;whiteSpace=wrap;" parent="WIyWlLk6GJQsqaUBKTNV-1" vertex="1">
          <mxGeometry x="94" y="270" width="100" height="100" as="geometry" />
        </mxCell>
        <mxCell id="GkLdqIe8JMVAQNq9l6uQ-17" value="No" style="edgeStyle=orthogonalEdgeStyle;rounded=0;orthogonalLoop=1;jettySize=auto;html=1;entryX=0.5;entryY=0;entryDx=0;entryDy=0;entryPerimeter=0;" parent="WIyWlLk6GJQsqaUBKTNV-1" source="GkLdqIe8JMVAQNq9l6uQ-14" target="GkLdqIe8JMVAQNq9l6uQ-8" edge="1">
          <mxGeometry x="0.2" y="16" relative="1" as="geometry">
            <mxPoint as="offset" />
          </mxGeometry>
        </mxCell>
        <mxCell id="GkLdqIe8JMVAQNq9l6uQ-18" style="edgeStyle=orthogonalEdgeStyle;rounded=0;orthogonalLoop=1;jettySize=auto;html=1;entryX=0;entryY=0.5;entryDx=0;entryDy=0;entryPerimeter=0;" parent="WIyWlLk6GJQsqaUBKTNV-1" source="GkLdqIe8JMVAQNq9l6uQ-11" target="GkLdqIe8JMVAQNq9l6uQ-4" edge="1">
          <mxGeometry relative="1" as="geometry">
            <Array as="points">
              <mxPoint x="30" y="614" />
              <mxPoint x="30" y="170" />
            </Array>
          </mxGeometry>
        </mxCell>
        <mxCell id="GkLdqIe8JMVAQNq9l6uQ-23" style="edgeStyle=orthogonalEdgeStyle;rounded=0;orthogonalLoop=1;jettySize=auto;html=1;exitX=0.5;exitY=1;exitDx=0;exitDy=0;entryX=0.5;entryY=0;entryDx=0;entryDy=0;" parent="WIyWlLk6GJQsqaUBKTNV-1" source="GkLdqIe8JMVAQNq9l6uQ-20" target="GkLdqIe8JMVAQNq9l6uQ-21" edge="1">
          <mxGeometry relative="1" as="geometry" />
        </mxCell>
        <mxCell id="GkLdqIe8JMVAQNq9l6uQ-20" value="Calculate fund platform fees" style="whiteSpace=wrap;html=1;strokeWidth=2;" parent="WIyWlLk6GJQsqaUBKTNV-1" vertex="1">
          <mxGeometry x="340" y="10" width="120" height="60" as="geometry" />
        </mxCell>
        <mxCell id="GkLdqIe8JMVAQNq9l6uQ-25" style="edgeStyle=orthogonalEdgeStyle;rounded=0;orthogonalLoop=1;jettySize=auto;html=1;entryX=0.5;entryY=0;entryDx=0;entryDy=0;" parent="WIyWlLk6GJQsqaUBKTNV-1" source="GkLdqIe8JMVAQNq9l6uQ-21" target="GkLdqIe8JMVAQNq9l6uQ-24" edge="1">
          <mxGeometry relative="1" as="geometry" />
        </mxCell>
        <mxCell id="GkLdqIe8JMVAQNq9l6uQ-21" value="Calculate fund dealing fees" style="whiteSpace=wrap;html=1;strokeWidth=2;" parent="WIyWlLk6GJQsqaUBKTNV-1" vertex="1">
          <mxGeometry x="340" y="120" width="120" height="60" as="geometry" />
        </mxCell>
        <mxCell id="GkLdqIe8JMVAQNq9l6uQ-26" style="edgeStyle=orthogonalEdgeStyle;rounded=0;orthogonalLoop=1;jettySize=auto;html=1;entryX=0.5;entryY=0;entryDx=0;entryDy=0;" parent="WIyWlLk6GJQsqaUBKTNV-1" source="GkLdqIe8JMVAQNq9l6uQ-24" target="GkLdqIe8JMVAQNq9l6uQ-27" edge="1">
          <mxGeometry relative="1" as="geometry">
            <mxPoint x="400" y="330" as="targetPoint" />
          </mxGeometry>
        </mxCell>
        <mxCell id="GkLdqIe8JMVAQNq9l6uQ-24" value="Calculate share platform fees" style="whiteSpace=wrap;html=1;strokeWidth=2;" parent="WIyWlLk6GJQsqaUBKTNV-1" vertex="1">
          <mxGeometry x="340" y="230" width="120" height="60" as="geometry" />
        </mxCell>
        <mxCell id="GkLdqIe8JMVAQNq9l6uQ-29" style="edgeStyle=orthogonalEdgeStyle;rounded=0;orthogonalLoop=1;jettySize=auto;html=1;entryX=0.5;entryY=0;entryDx=0;entryDy=0;" parent="WIyWlLk6GJQsqaUBKTNV-1" source="GkLdqIe8JMVAQNq9l6uQ-27" target="CeQ2sipdlTVvld8hq7BN-4" edge="1">
          <mxGeometry relative="1" as="geometry" />
        </mxCell>
        <mxCell id="GkLdqIe8JMVAQNq9l6uQ-27" value="Calculate share dealing fees" style="whiteSpace=wrap;html=1;strokeWidth=2;" parent="WIyWlLk6GJQsqaUBKTNV-1" vertex="1">
          <mxGeometry x="340" y="340" width="120" height="60" as="geometry" />
        </mxCell>
        <mxCell id="CeQ2sipdlTVvld8hq7BN-1" value="" style="edgeStyle=orthogonalEdgeStyle;rounded=0;orthogonalLoop=1;jettySize=auto;html=1;" edge="1" parent="WIyWlLk6GJQsqaUBKTNV-1" source="GkLdqIe8JMVAQNq9l6uQ-28" target="CeQ2sipdlTVvld8hq7BN-0">
          <mxGeometry relative="1" as="geometry" />
        </mxCell>
        <mxCell id="GkLdqIe8JMVAQNq9l6uQ-28" value="Send results list to output window (display results)" style="whiteSpace=wrap;html=1;strokeWidth=2;" parent="WIyWlLk6GJQsqaUBKTNV-1" vertex="1">
          <mxGeometry x="520" y="450" width="120" height="60" as="geometry" />
        </mxCell>
        <mxCell id="CeQ2sipdlTVvld8hq7BN-0" value="Save user details to database" style="whiteSpace=wrap;html=1;strokeWidth=2;" vertex="1" parent="WIyWlLk6GJQsqaUBKTNV-1">
          <mxGeometry x="520" y="584" width="120" height="60" as="geometry" />
        </mxCell>
        <mxCell id="CeQ2sipdlTVvld8hq7BN-7" value="" style="edgeStyle=orthogonalEdgeStyle;rounded=0;orthogonalLoop=1;jettySize=auto;html=1;entryX=0.5;entryY=0;entryDx=0;entryDy=0;entryPerimeter=0;" edge="1" parent="WIyWlLk6GJQsqaUBKTNV-1" source="CeQ2sipdlTVvld8hq7BN-4" target="CeQ2sipdlTVvld8hq7BN-8">
          <mxGeometry relative="1" as="geometry">
            <mxPoint x="400" y="556" as="targetPoint" />
          </mxGeometry>
        </mxCell>
        <mxCell id="CeQ2sipdlTVvld8hq7BN-4" value="Add results for this platform to list" style="whiteSpace=wrap;html=1;strokeWidth=2;" vertex="1" parent="WIyWlLk6GJQsqaUBKTNV-1">
          <mxGeometry x="340" y="450" width="120" height="60" as="geometry" />
        </mxCell>
        <mxCell id="CeQ2sipdlTVvld8hq7BN-9" value="Yes" style="edgeStyle=orthogonalEdgeStyle;rounded=0;orthogonalLoop=1;jettySize=auto;html=1;entryX=0;entryY=0.5;entryDx=0;entryDy=0;" edge="1" parent="WIyWlLk6GJQsqaUBKTNV-1" source="CeQ2sipdlTVvld8hq7BN-8" target="GkLdqIe8JMVAQNq9l6uQ-28">
          <mxGeometry relative="1" as="geometry" />
        </mxCell>
        <mxCell id="CeQ2sipdlTVvld8hq7BN-8" value="Last platform processed?" style="strokeWidth=2;html=1;shape=mxgraph.flowchart.decision;whiteSpace=wrap;" vertex="1" parent="WIyWlLk6GJQsqaUBKTNV-1">
          <mxGeometry x="350" y="564" width="100" height="100" as="geometry" />
        </mxCell>
        <mxCell id="CeQ2sipdlTVvld8hq7BN-11" style="edgeStyle=orthogonalEdgeStyle;rounded=0;orthogonalLoop=1;jettySize=auto;html=1;exitX=0.5;exitY=1;exitDx=0;exitDy=0;entryX=0.89;entryY=0.616;entryDx=0;entryDy=0;entryPerimeter=0;" edge="1" parent="WIyWlLk6GJQsqaUBKTNV-1" source="CeQ2sipdlTVvld8hq7BN-0" target="GkLdqIe8JMVAQNq9l6uQ-4">
          <mxGeometry relative="1" as="geometry">
            <mxPoint x="154" y="130" as="targetPoint" />
            <mxPoint x="154" y="80" as="sourcePoint" />
            <Array as="points">
              <mxPoint x="580" y="680" />
              <mxPoint x="220" y="680" />
              <mxPoint x="220" y="220" />
              <mxPoint x="183" y="220" />
            </Array>
          </mxGeometry>
        </mxCell>
      </root>
    </mxGraphModel>
  </diagram>
</mxfile>
